<?xml version="1.0" standalone="no"?><svg xmlns="http://www.w3.org/2000/svg" viewBox="0 0 1440 320"><path fill="#ffff" fill-opacity="1" d="M0,224L16,218.7C32,213,64,203,96,176C128,149,160,107,192,90.7C224,75,256,85,288,101.3C320,117,352,139,384,165.3C416,192,448,224,480,213.3C512,203,544,149,576,138.7C608,128,640,160,672,176C704,192,736,192,768,192C800,192,832,192,864,208C896,224,928,256,960,256C992,256,1024,224,1056,186.7C1088,149,1120,107,1152,96C1184,85,1216,107,1248,144C1280,181,1312,235,1344,229.3C1376,224,1408,160,1424,128L1440,96L1440,320L1424,320C1408,320,1376,320,1344,320C1312,320,1280,320,1248,320C1216,320,1184,320,1152,320C1120,320,1088,320,1056,320C1024,320,992,320,960,320C928,320,896,320,864,320C832,320,800,320,768,320C736,320,704,320,672,320C640,320,608,320,576,320C544,320,512,320,480,320C448,320,416,320,384,320C352,320,320,320,288,320C256,320,224,320,192,320C160,320,128,320,96,320C64,320,32,320,16,320L0,320Z"></path></svg>